<svg xmlns="http://www.w3.org/2000/svg" xmlns:xlink="http://www.w3.org/1999/xlink" viewBox="0,0,256,256" width="48px" height="48px" fill-rule="nonzero"><defs><linearGradient x1="24" y1="44" x2="24" y2="4" gradientUnits="userSpaceOnUse" id="color-1"><stop offset="0" stop-color="#ba3939"></stop><stop offset="0.557" stop-color="#ee3d4a"></stop><stop offset="1" stop-color="#f44f5a"></stop></linearGradient></defs><g fill="none" fill-rule="nonzero" stroke="none" stroke-width="1" stroke-linecap="butt" stroke-linejoin="miter" stroke-miterlimit="10" stroke-dasharray="" stroke-dashoffset="0" font-family="none" font-weight="none" font-size="none" text-anchor="none" style="mix-blend-mode: normal"><g transform="scale(5.33333,5.33333)"><circle cx="24" cy="24" r="20" fill="url(#color-1)"></circle><path d="M27.678,11.938l1.502,2.916h-5.765l3.446,8.394c0.287,0.663 0.464,1.392 0.464,2.098c-0.022,2.496 -2.496,4.307 -4.462,4.307c-1.59,0 -2.562,-0.95 -2.562,-2.253c0,-1.811 1.833,-3.38 3.866,-3.821l-4.727,-11.641h8.238M31.414,18.016l3.6,6.173c0.685,1.23 1.082,2.614 1.127,4.042c0,4.503 -3.578,7.754 -8.637,7.754h-6.914c-5.08,0 -8.637,-3.251 -8.637,-7.754c0.044,-1.406 0.42,-2.79 1.104,-4.042l3.6,-6.173h3.38l-4.219,7.271c-0.508,0.879 -0.795,1.867 -0.839,2.878c0,2.878 1.966,4.899 5.699,4.899h6.715c3.733,0 5.699,-2.043 5.699,-4.899c-0.022,-1.01 -0.309,-1.999 -0.839,-2.878l-4.197,-7.271h3.358M20.038,18.016h0.005M28.288,10.938h-0.61h-8.239h-1.485l0.559,1.376l1.909,4.702h-0.379h-0.005h-3.38h-0.574l-0.289,0.496l-3.6,6.173c-0.767,1.402 -1.191,2.954 -1.24,4.514c0,5.104 4.052,8.786 9.636,8.786h6.914c5.584,0 9.637,-3.682 9.637,-8.754c-0.049,-1.588 -0.482,-3.143 -1.253,-4.528l-3.61,-6.19l-0.289,-0.496h-0.574h-3.358h-1.732l0.866,1.5l4.197,7.271c0.447,0.741 0.687,1.565 0.706,2.4c0,2.456 -1.713,3.877 -4.699,3.877h-6.715c-2.986,0 -4.699,-1.421 -4.699,-3.899c0.036,-0.805 0.28,-1.642 0.705,-2.377l4.218,-7.27l0.076,-0.13l1.854,4.566c-1.866,0.766 -3.535,2.392 -3.535,4.445c0,1.915 1.465,3.253 3.562,3.253c2.556,0 5.435,-2.266 5.462,-5.299c0,-0.817 -0.189,-1.68 -0.546,-2.505l-2.872,-6.996h4.274h1.64l-0.751,-1.458l-1.502,-2.916l-0.279,-0.541z" fill="#000000" opacity="0.05"></path><path d="M27.678,11.938l1.502,2.916h-5.765l3.446,8.394c0.287,0.663 0.464,1.392 0.464,2.098c-0.022,2.496 -2.496,4.307 -4.462,4.307c-1.59,0 -2.562,-0.95 -2.562,-2.253c0,-1.811 1.833,-3.38 3.866,-3.821l-4.727,-11.641h8.238M31.414,18.016l3.6,6.173c0.685,1.23 1.082,2.614 1.127,4.042c0,4.503 -3.578,7.754 -8.637,7.754h-6.914c-5.08,0 -8.637,-3.251 -8.637,-7.754c0.044,-1.406 0.42,-2.79 1.104,-4.042l3.6,-6.173h3.38l-4.219,7.271c-0.508,0.879 -0.795,1.867 -0.839,2.878c0,2.878 1.966,4.899 5.699,4.899h6.715c3.733,0 5.699,-2.043 5.699,-4.899c-0.022,-1.01 -0.309,-1.999 -0.839,-2.878l-4.197,-7.271h3.358M27.983,11.438h-0.305h-8.239h-0.743l0.279,0.688l4.515,11.118c-1.879,0.605 -3.69,2.16 -3.69,4.156c0,1.621 1.259,2.753 3.062,2.753c2.275,0 4.938,-2.098 4.962,-4.803c0,-0.745 -0.175,-1.539 -0.505,-2.302l-3.159,-7.695h5.019h0.821l-0.376,-0.729l-1.502,-2.916l-0.139,-0.27zM31.701,17.516h-0.287h-3.358h-0.866l0.433,0.75l4.197,7.271c0.487,0.807 0.752,1.717 0.773,2.639c0,2.743 -1.944,4.388 -5.199,4.388h-6.715c-3.255,0 -5.199,-1.644 -5.199,-4.399c0.04,-0.907 0.307,-1.823 0.772,-2.627l4.219,-7.27l0.436,-0.751h-0.868h-3.38h-0.287l-0.145,0.248l-3.601,6.173c-0.723,1.321 -1.126,2.796 -1.172,4.278c0,4.799 3.842,8.27 9.137,8.27h6.914c5.294,0 9.137,-3.471 9.137,-8.254c-0.046,-1.493 -0.457,-2.969 -1.19,-4.285l-3.605,-6.181l-0.146,-0.25z" fill="#000000" opacity="0.07"></path><path d="M22.862,29.653c-1.59,0 -2.562,-0.95 -2.562,-2.253c0,-1.811 1.833,-3.38 3.866,-3.821l-4.727,-11.641h8.239l1.502,2.916h-5.765l3.446,8.394c0.287,0.663 0.464,1.392 0.464,2.098c-0.023,2.496 -2.497,4.307 -4.463,4.307zM31.414,18.016l3.601,6.173c0.685,1.23 1.082,2.614 1.127,4.042c0,4.503 -3.578,7.754 -8.637,7.754h-6.915c-5.08,0 -8.637,-3.251 -8.637,-7.754c0.044,-1.406 0.42,-2.79 1.104,-4.042l3.601,-6.173h3.38l-4.219,7.271c-0.508,0.879 -0.795,1.867 -0.839,2.878c0,2.878 1.966,4.899 5.699,4.899h6.715c3.733,0 5.699,-2.043 5.699,-4.899c-0.022,-1.01 -0.309,-1.999 -0.839,-2.878l-4.197,-7.271z" fill="#ffffff"></path></g></g></svg>